<?xml version="1.0" encoding="UTF-8"?>
<!DOCTYPE svg PUBLIC "-//W3C//DTD SVG 1.1//EN" "http://www.w3.org/Graphics/SVG/1.1/DTD/svg11.dtd">
<!-- Creator: CorelDRAW 2019 (64-Bit) -->
<svg xmlns="http://www.w3.org/2000/svg" xml:space="preserve" width="321.158mm" height="51.981mm" version="1.1" style="shape-rendering:geometricPrecision; text-rendering:geometricPrecision; image-rendering:optimizeQuality; fill-rule:evenodd; clip-rule:evenodd"
viewBox="0 0 54960.23 8895.59"
 xmlns:xlink="http://www.w3.org/1999/xlink"
 xmlns:xodm="http://www.corel.com/coreldraw/odm/2003">
 <defs>
  <style type="text/css">
   <![CDATA[
    .fil1 {fill:#E31E24}
    .fil0 {fill:#0AAEF5;fill-rule:nonzero}
   ]]>
  </style>
 </defs>
 <g id="Слой_x0020_1">
  <metadata id="CorelCorpID_0Corel-Layer"/>
  <g id="_2119381386096">
   <g>
    <path class="fil0" d="M13124.51 6227.39l0 -4469.05 3973.95 0 0 996.88 -2983.83 0 0 996.89 1986.96 0 0 990.1 -1986.96 0 0 996.91 2983.83 0 0 983.32 -3478.9 0c-135.64,0 -252.03,-48.6 -349.25,-145.8 -97.2,-97.19 -145.8,-213.62 -145.8,-349.25z"/>
    <path class="fil0" d="M20914.55 1710.85l990.1 0 0 4984.46 -495.07 0c-99.44,0 -191.02,-27.14 -274.65,-81.39 -83.65,-54.25 -143.53,-126.6 -179.71,-216.99 -311.96,194.39 -657.81,291.59 -1037.59,291.59 -537.99,0 -1001.41,-188.74 -1390.22,-566.27 -388.78,-377.5 -587.72,-833 -596.77,-1366.47l0 -3044.93 495.07 0c90.43,0 174.04,22.64 250.9,67.84 76.86,45.23 137.91,106.26 183.11,183.11 45.2,76.84 67.84,160.47 67.84,250.9l0 2543.08c9.02,262.22 109.61,484.88 301.76,667.98 192.13,183.11 421.58,274.65 688.33,274.65 275.78,0 510.9,-97.19 705.28,-291.59 194.42,-194.42 291.63,-429.49 291.63,-705.28l0 -2990.68z"/>
    <path class="fil0" d="M26568.84 3073.95c36.16,411.42 -76.86,771.97 -339.08,1081.65 -262.22,309.71 -592.23,487.16 -990.12,532.36l1335.99 2007.36 -908.74 0c-176.3,0 -314.21,-74.6 -413.68,-223.79l-1179.99 -1770 -481.5 0 0 1498.72c0,135.62 -48.6,252.06 -145.79,349.25 -97.2,97.2 -215.88,145.82 -356.02,145.82l-495.07 0 0 -4984.46 2407.46 0c397.85,0 749.35,130.01 1054.51,389.96 305.18,259.97 475.83,584.33 512.01,973.14zm-1485.15 -366.19l-1491.96 0 0 996.89 1491.96 0c135.62,0 252.04,-48.6 349.25,-145.8 97.19,-97.22 145.79,-214.77 145.79,-352.65 0,-137.9 -48.6,-255.45 -145.79,-352.63 -97.2,-97.2 -213.62,-145.8 -349.25,-145.8z"/>
    <path class="fil0" d="M29469.3 6729.2c-334.56,0 -655.55,-65.53 -963.01,-196.65 -307.42,-131.1 -571.89,-307.44 -793.43,-528.95 -221.53,-221.53 -397.83,-484.9 -528.95,-790.06 -131.1,-305.16 -196.68,-627.28 -196.68,-966.36 0,-452.1 110.77,-868.03 332.3,-1247.82 221.55,-379.76 523.3,-680.4 905.35,-901.93 382,-221.55 797.94,-332.3 1247.77,-332.3 449.85,0 865.81,110.76 1247.82,332.3 382.02,221.53 683.81,522.17 905.34,901.93 221.55,379.79 332.3,794.58 332.3,1244.42 0,449.85 -110.76,865.77 -332.3,1247.82 -221.53,382.02 -523.32,683.81 -905.34,905.34 -382.02,221.51 -799.08,332.27 -1251.18,332.27zm-1057.95 -1424.12c293.88,289.37 646.54,434.04 1057.95,434.04 411.4,0 762.9,-145.82 1054.5,-437.41 291.63,-291.61 437.41,-643.11 437.41,-1054.53 0,-411.42 -145.79,-762.92 -437.41,-1054.55 -291.59,-291.57 -643.1,-437.41 -1054.5,-437.41 -411.42,0 -762.96,145.84 -1054.55,437.41 -291.63,291.63 -437.41,643.13 -437.41,1054.55 0,411.42 144.67,764.05 434.01,1057.9z"/>
    <path class="fil0" d="M32743.87 4494.74c-36.16,-361.7 4.52,-712.06 122.07,-1051.16 117.57,-339.08 289.35,-630.67 515.4,-874.81 226.06,-244.14 499.58,-440.82 820.58,-590.01 320.99,-149.19 662.33,-223.79 1024,-223.79l1478.39 0 0 996.91 -1491.92 0c-429.51,0 -791.21,155.97 -1085.06,467.91 -293.87,311.96 -429.49,682.68 -406.9,1112.18 18.09,397.85 181.96,732.41 491.68,1003.65 309.66,271.28 670.24,406.9 1081.64,406.9l915.52 0c90.43,0 174.06,22.61 250.91,67.84 76.86,45.2 136.77,106.22 179.71,183.09 42.97,76.86 64.43,160.49 64.43,250.91l0 495.03 -1376.65 0c-429.51,0 -834.15,-96.04 -1213.9,-288.22 -379.76,-192.13 -692.83,-461.11 -939.26,-806.99 -246.4,-345.86 -389.92,-729 -430.62,-1149.46zm5642.26 -2726.19l0 3980.78 2983.9 0 0 501.83c0,90.43 -22.64,174.08 -67.84,250.93 -45.2,76.86 -106.26,136.73 -183.11,179.71 -76.86,42.94 -160.47,64.43 -250.9,64.43l-3478.95 0 0 -4977.67 996.89 0zm4658.92 4794.56c0,49.75 -16.94,90.43 -50.84,122.05 -33.92,31.66 -73.47,47.49 -118.68,47.49l-827.35 0 0 -4984.45 996.88 0 0 4814.91zm4658.9 -4808.13l990.12 0 0 4489.4c0,54.25 -9.02,106.26 -27.11,155.97 -22.62,63.3 -56.51,119.83 -101.74,169.54l0 6.79 -6.78 6.78c-99.44,104 -221.53,155.95 -366.22,155.95l-488.27 0 0 -6.76 -2977.07 -3390.78 0 2902.51c0,135.62 -48.58,252.04 -145.79,349.25 -97.2,97.2 -215.88,145.79 -356.02,145.79l-495.07 0 0 -4482.59c0,-58.77 11.31,-110.77 33.92,-155.97l0 -6.79c18.09,-58.77 51.99,-115.29 101.7,-169.54l0 -6.78c104,-108.51 226.05,-162.76 366.22,-162.76l495.03 0 0 6.79 2977.07 3397.56 0 -3404.35zm2671.95 4808.13c0,49.75 -16.94,90.43 -50.84,122.05 -33.92,31.66 -73.47,47.49 -118.7,47.49l-827.34 0 0 -4984.45 996.88 0 0 4814.91zm623.93 -2068.36c-36.18,-361.7 4.52,-712.06 122.05,-1051.16 117.57,-339.08 289.37,-630.67 515.41,-874.81 226.05,-244.14 499.58,-440.82 820.58,-590.01 320.99,-149.19 662.31,-223.79 1023.98,-223.79l1478.39 0 0 996.91 -1491.92 0c-429.51,0 -791.19,155.97 -1085.04,467.91 -293.88,311.96 -429.51,682.68 -406.9,1112.18 18.07,397.85 181.96,732.41 491.66,1003.65 309.68,271.28 670.24,406.9 1081.65,406.9l915.5 0c90.43,0 174.06,22.61 250.91,67.84 76.86,45.2 136.77,106.22 179.71,183.09 42.97,76.86 64.43,160.49 64.43,250.91l0 495.03 -1376.63 0c-429.51,0 -834.15,-96.04 -1213.9,-288.22 -379.76,-192.13 -692.84,-461.11 -939.26,-806.99 -246.4,-345.86 -389.94,-729 -430.62,-1149.46z"/>
   </g>
   <path class="fil0" d="M21520.15 8681.93l-2.76 -971.14 -147.29 0 -379.93 642.33 -384.07 -642.33 -148.44 0 0 971.14 170.65 0 0 -635.41 318.85 524.42 80.47 0 318.87 -532.73 1.39 643.73 172.26 0zm845.39 -151.21l0 -267.77 468.9 0 0 -148.46 -468.9 0 0 -252.49 528.56 0 0 -151.21 -708.9 0 0 971.14 728.32 0 0 -151.21 -547.98 0zm1964.69 -1.4l0 -818.52 -711.48 0 -11.11 307.97c-9.94,284.4 -42.06,505.01 -174.11,510.55l-41.62 0 -1.39 359.32 168.1 0 0 -206.71 745.24 0 0 206.71 166.49 0 0 -359.32 -140.14 0zm-564.19 -493.9l6.95 -172.02 379.67 0 0 665.92 -492.29 0c75.16,-77.68 97.36,-273.31 105.67,-493.9zm1267.85 646.52l167.86 0 521.64 -688.14 0 688.14 177.58 0 0 -971.14 -167.88 0 -521.64 689.52 0 -689.52 -177.57 0 0 971.14zm2379.55 -152.62l0 -818.52 -178.95 0 0 818.52 -489.76 0 0 -818.52 -177.57 0 0 971.14 824.1 0 0 213.66 166.48 0 0 -366.27 -144.3 0zm703.66 152.62l167.86 0 521.66 -688.14 0 688.14 177.57 0 0 -971.14 -167.88 0 -521.64 689.52 0 -689.52 -177.57 0 0 971.14zm2214.48 -971.14l0 400.94 -502.22 0 0 -400.94 -180.36 0 0 971.14 180.36 0 0 -416.23 502.22 0 0 416.23 180.36 0 0 -971.14 -180.36 0zm1586.01 971.14l188.67 0 -438.4 -971.14 -177.58 0 -437.02 971.14 185.88 0 95.73 -224.76 485.6 0 97.12 224.76zm-521.66 -366.27l181.72 -424.51 183.14 424.51 -364.87 0zm1373.74 -604.86l-13.86 402.33c-9.74,273.3 -45.79,417.6 -163.7,417.6 -15.28,0 -27.76,-1.4 -41.64,-5.58l-12.48 156.79c37.46,8.33 67.97,13.86 98.49,13.86 209.48,0 266.38,-206.69 278.86,-589.62l8.33 -242.78 382.92 0 0 818.54 177.57 0 0 -971.14 -714.49 0zm1828.8 328.78l-269.17 0 0 -328.78 -177.57 0 0 971.14 417.6 0c245.57,0 391.22,-113.75 391.22,-331.57 0,-206.73 -130.4,-310.79 -362.08,-310.79zm502.22 642.36l177.57 0 0 -971.14 -177.57 0 0 971.14zm-539.68 -138.72l-231.71 0 0 -366.29 231.71 0c140.11,0 219.19,54.11 219.19,176.2 0,124.87 -80.47,190.09 -219.19,190.09zm2025.77 138.72l203.95 0 -344.06 -500.83 331.57 -470.3 -191.46 0 -278.84 406.49 -185.92 0 0 -406.49 -177.57 0 0 971.14 177.57 0 0 -409.28 180.36 0 284.4 409.28zm1519.44 0l437 0c245.57,0 384.31,-108.21 384.31,-301.05 0,-183.14 -123.47,-283.03 -356.55,-283.03l-287.19 0 0 -238.63 578.54 0 0 -148.42 -756.11 0 0 971.14zm177.57 -138.72l0 -306.63 249.73 0c141.53,0 212.27,48.57 212.27,149.84 0,102.68 -73.54,156.79 -212.27,156.79l-249.73 0zm1683.13 152.58c301.05,0 523.03,-210.87 523.03,-499.43 0,-288.58 -221.97,-499.46 -523.03,-499.46 -301.07,0 -523.05,212.27 -523.05,499.46 0,287.19 221.97,499.43 523.05,499.43zm0 -158.16c-195.64,0 -341.3,-142.89 -341.3,-341.27 0,-198.41 145.67,-341.3 341.3,-341.3 195.62,0 341.29,142.89 341.29,341.3 0,198.38 -145.67,341.27 -341.29,341.27zm1515.25 -826.84l-399.54 0 0 971.14 180.36 0 0 -280.25 219.19 0c255.28,0 413.44,-131.81 413.44,-345.46 0,-215.03 -158.16,-345.43 -413.44,-345.43zm-8.33 538.28l-210.85 0 0 -385.68 210.85 0c158.18,0 240.05,70.75 240.05,192.83 0,122.09 -81.87,192.85 -240.05,192.85zm986.66 432.86l437 0c245.57,0 384.31,-108.21 384.31,-301.05 0,-183.14 -123.47,-283.03 -356.55,-283.03l-287.19 0 0 -238.63 578.54 0 0 -148.42 -756.11 0 0 971.14zm177.57 -138.72l0 -306.63 249.73 0c141.53,0 212.27,48.57 212.27,149.84 0,102.68 -73.54,156.79 -212.27,156.79l-249.73 0zm1683.13 152.58c301.05,0 523.03,-210.87 523.03,-499.43 0,-288.58 -221.97,-499.46 -523.03,-499.46 -301.07,0 -523.05,212.27 -523.05,499.46 0,287.19 221.97,499.43 523.05,499.43zm0 -158.16c-195.64,0 -341.3,-142.89 -341.3,-341.27 0,-198.41 145.67,-341.3 341.3,-341.3 195.62,0 341.29,142.89 341.29,341.3 0,198.38 -145.67,341.27 -341.29,341.27zm1515.25 -826.84l-399.54 0 0 971.14 180.34 0 0 -280.25 219.2 0c255.28,0 413.44,-131.81 413.44,-345.46 0,-215.03 -158.16,-345.43 -413.44,-345.43zm-8.33 538.28l-210.87 0 0 -385.68 210.87 0c158.18,0 240.05,70.75 240.05,192.83 0,122.09 -81.87,192.85 -240.05,192.85zm1620.7 -538.28l-295.53 570.19 -287.19 -570.19 -192.83 0 387.08 724.19 -15.28 23.6c-40.23,63.8 -87.4,90.15 -144.3,90.15 -29.13,0 -59.64,-6.95 -94.31,-18.02l-44.41 141.51c48.57,20.81 97.1,30.51 142.89,30.51 117.94,0 224.75,-66.59 299.67,-208.11l421.77 -783.83 -177.57 0z"/>
   <g>
    <path class="fil0" d="M-0 7599.7l0 -3064.16 17.59 -32.96 56.01 -34.93 43.64 175.92c6.97,28.31 35.56,45.62 63.9,38.66 16.14,-3.99 28.7,-14.96 35.24,-28.92l106.32 -198.91 53.96 58.29c19.73,21.36 53.1,22.64 74.44,2.89l3.05 -3.03 110.89 -119.81c7.92,-8.59 12.44,-19.06 13.69,-29.83l0.19 0.03 27.14 -230.65 71.62 749.08c2.74,28.99 28.48,50.3 57.5,47.56 24.85,-2.34 44.03,-21.58 47.35,-45.28l64.04 -457.3 70.56 8.45 73.55 86.68c18.84,22.26 52.21,25.07 74.48,6.21 2.74,-2.33 5.17,-4.84 7.31,-7.55l48.89 -52.81 43.13 100.54c11.41,26.83 42.46,39.34 69.29,27.93 8.33,-3.54 15.26,-8.95 20.55,-15.57l98.98 -114.32 87.94 -6.04 158.64 84.68c25.69,13.72 57.65,3.99 71.36,-21.7 3.27,-6.16 5.22,-12.7 5.97,-19.22l40.99 -373.8 73.64 768.62c2.74,29.01 28.49,50.31 57.47,47.57 25.12,-2.36 44.48,-21.99 47.42,-46.05l79.75 -507.52 358.67 0c16.17,0 30.67,-7.24 40.37,-18.69l252.23 -241.38 234.69 251.68c10.39,11.16 24.51,16.82 38.69,16.82l0 0.12 696.59 0c19.44,0 36.42,-10.47 45.62,-26.08l82.55 -113.24 101.07 116.64c10.42,12.06 25.12,18.23 39.91,18.23l0 0.19 229.56 0c28.58,0 51.87,-22.64 52.9,-51l32.81 -258.61 59.47 782.17c2.17,29.14 27.55,50.96 56.64,48.79 24.69,-1.83 44.13,-20.3 48.21,-43.62l84.13 -482.03 354.91 0c16.17,0 30.67,-7.24 40.37,-18.69l252.23 -241.38 234.72 251.68c10.39,11.16 24.51,16.82 38.66,16.82l0 0.12 415.97 0 0.02 0c13.26,239.98 58.22,465.87 134.94,678.86l-2113.25 0 -352.89 0 -1756.41 0 0 1691.41 2819.27 0c527.26,751.35 1210,1307.34 2051.85,1668.36l-5711.07 0c-230.09,0 -427.71,-82.38 -592.63,-247.29 -164.94,-164.94 -247.29,-362.54 -247.29,-592.66zm0 -3210.72l0 -4371.8 6466.91 0c-819.53,375.79 -1514.75,930.63 -2007.84,1691.41l-2779.21 0 0 1691.41 1752.23 0 352.91 0 2108.55 0c-95.65,279.01 -139.16,577.45 -130.61,895.12l-388.59 0 -255.33 -273.79 -0.12 0.12 -0.5 -0.51c-20.09,-21.03 -53.43,-21.79 -74.44,-1.66l-279.29 267.29 -377.91 0c-24.4,0 -44.96,16.55 -51.08,39.02 -1.06,2.89 -1.87,5.96 -2.43,9.12l-18.26 104.58 -66.86 -879.67 -0.15 0c-1.8,-24.51 -20.66,-45.18 -46,-48.38 -28.85,-3.68 -55.26,16.79 -58.92,45.68l-93.08 733.91 -159.12 0 -128.61 -148.27c-2.57,-2.96 -5.53,-5.7 -8.83,-8.13 -23.53,-17.13 -56.49,-11.94 -73.64,11.6l-108.69 149.09 -647.12 0 -255.31 -273.79 -0.12 0.12 -0.5 -0.51c-20.09,-21.03 -53.43,-21.79 -74.44,-1.66l-279.29 267.29 -382.91 0 0 0.19c-25.6,0 -48.09,18.62 -52.13,44.68l-22.21 141.44 -82.62 -862.23c-1.11,-25.65 -20.86,-47.35 -47.2,-50.16 -28.99,-3.08 -55.02,17.95 -58.1,46.96l-88.48 807.3 -100.21 -53.51c-9.09,-5.63 -19.94,-8.61 -31.45,-7.87l-124.67 8.64c-13.55,0.91 -26.8,7.03 -36.42,18.14l-59.55 68.78 -41.88 -97.66 -0.14 0.02c-2.82,-6.64 -7.05,-12.8 -12.68,-18.04 -21.36,-19.73 -54.69,-18.47 -74.48,2.89l-66.36 71.72 -47.08 -55.48c-8.4,-10.82 -20.93,-18.41 -35.61,-20.14l-142.52 -17.01c-28.49,-3.41 -54.57,16.67 -58.49,45.21l-9.05 64.67 -75.76 -792.34c-0.77,-25.84 -20.43,-47.85 -46.86,-50.88 -29.02,-3.29 -55.22,17.54 -58.53,46.56l-83.1 705.51 -60.51 65.41 -63.87 -69.02c-4.21,-5 -9.46,-9.33 -15.59,-12.61 -25.72,-13.69 -57.65,-3.95 -71.36,21.73l-77.78 145.51 -27.62 -111.37c-1.23,-5.94 -3.51,-11.76 -6.9,-17.23 -15.4,-24.75 -48.02,-32.36 -72.77,-16.94l-79.46 49.54z"/>
    <path class="fil0" d="M4237.66 3116.65c23.41,-84.28 49.47,-168.15 78.4,-251.65 199.49,-575.28 490.99,-1070.05 874.5,-1484.36 383.52,-414.1 847.7,-747.74 1392.34,-1000.91 544.68,-253.14 1123.72,-379.71 1737.31,-379.71l2508.5 0 0 1691.38 -2531.36 -0.03c-728.83,0.03 -1342.46,264.74 -1841.02,793.9 -185.35,196.66 -333.43,407.1 -444.55,631.39l-1774.12 0zm1789.83 2246.62c137.33,260.51 328.14,497.82 572.61,712.04 525.39,460.22 1137.31,690.31 1835.16,690.31l1553.5 0c153.4,0 295.27,38.35 425.64,115.07 130.35,76.68 231.99,180.2 304.91,310.57 72.92,130.56 109.4,272.42 109.4,425.83l0 839.95 -2335.81 0c-728.66,0 -1415.21,-163.05 -2059.62,-489.11 -644.4,-325.9 -1175.45,-782.33 -1593.54,-1369.1 -274.12,-384.65 -473.06,-796.51 -597.16,-1235.55l1784.92 0z"/>
   </g>
   <path class="fil1" d="M9569.59 6409.46c11.72,-12.94 23.51,-11.48 50.76,-26.78 15.35,-8.57 31.81,-22.66 44.37,-28.97l49.75 -43.84c47.92,-48.7 85.86,-107.8 120.22,-170.6 44.22,-80.93 81.82,-184.82 107.88,-278.05 56.85,-203.53 95.66,-450.91 92.39,-680.85 -5.9,-417.34 -132.92,-928.18 -429.49,-1114.12l-6.43 -110.98c59.37,1.3 131.72,-7.1 167.93,-43.95 73.38,-74.73 13.18,-282.64 -119.24,-239.33 -37.99,12.44 -47.39,16.45 -94.58,8.52 -34.59,-5.82 -49.46,-13.19 -60.8,-49.29l8.9 -7.5c20.86,-15.33 48.11,-30.29 66.6,-49.66 50.26,-52.59 20.86,-142.21 -25.91,-190.69 -17.75,-18.41 -22.08,-13.88 -39.55,-26.06 -16.24,-11.33 -24.25,-19.01 -50.11,-15.18 -90.39,13.31 -61.66,43.45 -129.63,66.71l-39.27 13.02c-1.32,0.19 -15.25,0.72 -15.68,0.72 -1.37,-0.07 -110.05,-40.52 -145.94,-48.45l-48.96 -9.77c-12.44,-3.97 -3.78,-0.39 -9.21,-4.07 161.57,-147.77 494.9,-155.99 510.19,-162.35 6.08,-2.52 9.62,-5.94 15.78,-8.56 26.76,-11.31 48.72,-9.58 70.93,-65.03 32.96,-82.31 43.28,-273.31 -77.63,-301.28 -37.75,-8.73 -159.94,-5.94 -205.12,-5.41 -35.24,0.38 -70.25,1.06 -105.49,2.43 -32.04,1.27 -67.85,6.93 -98.14,6.25 -23.1,-40.46 -30.51,-85.29 -66.47,-143.51 -25.58,-41.48 -58.61,-90.99 -90.15,-120.72 1.18,-45.23 9.05,-97.99 13.42,-144.71 11.28,-120.87 52.67,-256.99 -192.21,-262.58 -17.35,-110.74 -183.8,-181.74 -258.19,-47.9 -15.92,28.68 -24.47,77.78 -39.15,111.08 -10.29,-2.36 -5.75,-5.78 -13.64,-26.99 -3.68,-9.82 -8.21,-21.51 -12.7,-31.4 -7.62,-16.82 -26.37,-40.25 -38.06,-49.42 -97.27,-76.26 -351.28,15.68 -298.38,171.39 21.05,62.04 34.28,28.1 43.11,131.67 7.99,93.92 -4.3,77.64 -57.19,121.06 -33.42,27.47 -63.85,53.96 -91.21,83.41 -29.88,32.16 -55.53,68.04 -79.8,98.18l-2.45 -5.89c-8.33,-27.59 -11.07,-57.59 -28.46,-82.19 -17.13,-24.28 -76.44,-73.64 -106.05,-83.31 -71.62,-23.36 -233.17,-15.23 -297.56,6.62 -50.98,17.28 -92.43,52.67 -114.88,99.51 -29.49,61.57 -17.23,121.74 -13.66,190.69 -55.16,32.96 -163.48,77.75 -226.05,107.04 -100.25,46.99 -153.83,56.63 -149.26,191.99 2.94,87.86 45.56,192.81 144.32,197.38 75.42,3.47 173,-73.55 249.48,-94.07 -0.31,80.64 -0.15,125.13 -16.24,198.72 -7.74,35.6 -35.89,136.08 -51.34,162.66 -60.36,3.05 -153.68,-25.43 -202.5,-47.35 -22.49,-10.08 -57.79,-31.66 -88.29,-35.05 -148.85,-16.55 -211.42,216.19 -118.03,299.12 22.67,20.09 62.94,26.75 81.66,46.31 -37.68,26.29 -88.44,52.13 -128.21,78.69 -95.56,63.78 -87.82,216.84 10.58,275.06 80.38,47.54 123.76,0.89 164.01,-3.83 -14.46,95.47 -23.33,356.31 -10.34,441.47 14.8,96.74 35.03,208.28 89.13,286.18 31.61,45.5 55.77,95.63 84.01,145.44 16.26,28.68 35.56,59.93 55.75,92.96 11,18 22.54,29.38 30.53,46.58 8.52,18.26 20.93,33.8 31.69,45.37 -1.49,23.33 -1.49,23.33 -1.49,23.33 -13.28,5.66 -22.71,314.25 -25.34,356.35 -7.68,121.04 -36.35,233.8 61.62,297.24 76.02,49.17 191.91,84.25 303.64,68.23 120.39,-17.27 184.79,-60.36 187.68,-191.75 12.6,0.38 31.08,16.26 41.96,23.39l136.39 78.05c116.52,59.07 271.11,132.22 394.97,171.66 149.52,47.57 295.01,76.53 443.8,124.75 74.2,24.08 138.91,48.7 207.6,75.69 70.47,27.67 129.53,57.81 197.98,85.16 61.44,24.52 113.19,41.64 182.29,32.36 15.3,-2.05 44.9,-14.27 57.16,-11zm-1152.26 -1007.5c-4.04,-10.76 -7.56,-23.7 -11.57,-34.93l-44.67 -108.41c-41.67,-88.06 -103.14,-167.21 -172.93,-226.94 -28.58,-24.51 -83.65,-69.94 -118.15,-84.97 3.76,17.23 11.45,32.96 16.46,48.6 39.77,124.52 55.22,258.99 30.48,388.19 -4.07,-106.91 0.21,-177.57 -33.68,-284.11 -24.92,-78.24 -59.47,-150.63 -102.66,-212.89 -12,-17.28 -24.75,-27.24 -36.83,-39.46 -40.95,-41.41 -72.29,-93.51 -92.29,-147.19 -13.55,-36.35 -23.67,-81.78 -29.33,-128.09 -6.78,-55.19 0.53,-103.93 -2.89,-156.76 -105.76,47.87 -216.88,149.26 -289.23,237.77 -40.95,50.07 -70.78,95.75 -103.93,157.51 -24.23,45.18 -65.94,148.03 -97.34,168.5 10.82,30.94 43.13,78.55 58.53,104.73 19.49,33.15 42.51,64.88 60.24,99.82 8.52,16.79 21.49,31.4 33.56,46.02l103.45 140.72c91.93,116.68 204.69,234.3 326.04,320.94 149.83,106.97 245.15,152.41 416.14,230.89 79.58,36.52 149.31,63.54 233.54,89.81 84.71,26.41 172.76,46.53 255.79,68.35 165.28,43.45 321.42,103.91 473.45,169.83 71.93,31.23 155.1,86.27 250.5,48.86 193.45,-75.81 304.14,-440.82 336.34,-634.71 15.13,-90.84 32.48,-185.25 40.83,-280.47 4.4,-50.12 7.65,-105.49 7.97,-156.02 1.3,-203.94 -12.41,-371.58 -76.75,-580.46 -28.12,-91.28 -60.31,-186.77 -110.24,-270.68 -83.8,-140.88 -38.9,-75.08 -121.88,-158.26 -134.83,-135.14 -295.24,-146.1 -487.55,-154.43 5.54,72.46 14.72,83.07 26.88,145.94 31.21,161.36 54.42,385.03 33.05,539.54 24.61,15.52 78.93,108.72 95.22,142.78 28.03,58.56 45.66,108 62.98,174.08 20.54,78.24 24.42,112.59 67.84,168.24 33.95,43.54 80.81,78.07 129.67,104.34 -44.1,-1.37 -118.89,-49.97 -145.79,-73.79 -41.55,-36.76 -65.03,-77.47 -86.04,-135.52 -20.78,-57.35 -35.8,-107.45 -58.94,-163.21 -9.87,-23.82 -62.19,-140.23 -75.85,-149.09 -6.13,11.83 -23.07,94.45 -29.08,115.53 -10.94,38.5 -23.26,77.01 -34.33,114.8 -61.8,211.24 -104.15,420.74 -85.48,644.89 3.29,39.38 12.61,100.98 10.97,139.54 -16.05,-33.15 -31.13,-219.58 -33.34,-273.19 -7.72,-187.87 18.98,-373.02 66.93,-550.89 63.68,-236.32 63.34,-235.17 47.69,-455.84 -3.95,-49.71 -18.69,-180.49 -34.29,-216.81 -11.23,4.76 -2.33,-4.83 -12.41,14.49 -22.83,43.74 -45.37,83.27 -84.97,115.15 -43.69,35.17 -92.86,57.5 -133.81,91.83 -75.28,63.1 -124.45,158.69 -140.09,255.23l-9.4 47.08c-0.34,0.77 -0.87,2.05 -1.52,2.94 -3.08,-139.56 42.97,-248.47 128.62,-346.08 17.47,-19.9 41.53,-36.33 61.23,-51.37 63.37,-48.58 96.47,-87.82 119.09,-171.54 10.73,-39.7 18.7,-81.22 19.66,-127.03 0.38,-17.25 -18.57,-110.28 -44.15,-117.48 -26.13,-7.34 -54.4,-7.65 -81.3,-13.01 -159.8,-31.71 -258.94,-50.93 -408.83,-132.1l-138.55 -78.19c-21.48,177.82 -187.3,369.58 -325.44,463.83 -12.06,8.23 -93.13,58.15 -95.95,63.25 -8.32,14.99 -24.42,109.9 -26.44,133.72 -11.45,134.71 14.73,261.93 113.94,354.88 12.1,11.36 27.65,24.42 41.33,35 109.78,84.95 195.79,161.92 267.07,289.74 25.57,45.83 85.05,182.22 82.42,236.56zm-1230.38 -959.81c-1.1,54.23 1.68,113.67 7.55,166.94 7,63.75 23.36,146.16 45.13,207.45 3.7,10.35 8.11,21.68 12.37,31.54 5.08,11.83 7.31,21.24 18.69,28.61 44.24,-108.5 120.61,-230.53 192.25,-316.49 134.9,-161.82 264.48,-216.16 443.44,-320.43 58.18,-33.94 105.73,-69.1 147.12,-107.35 68.85,-63.59 251.73,-280.74 183.73,-393.26 -52.5,-86.83 -167.28,-135.09 -270.25,-145.07 -157.78,-15.26 -291.08,36.76 -397.61,105.35 -42.05,27.06 -147.28,114.42 -168.15,147.82 -5.25,8.42 -5.66,13.98 -12.29,20.11 -6.49,5.97 -7.85,3.18 -17.59,15.68 -208.51,268.13 -179.96,338.19 -184.38,559.1zm1027.15 -879.34l107.76 -162.18c18.84,-29.04 36.49,-55.48 53.31,-81.17 26.34,-40.23 3.73,-42.1 20.21,-113.87 17.04,-74.12 43.31,-129.27 95.56,-173.99 61.23,-52.38 127.1,-60.12 217.75,-54.06 -6.13,-49.13 -38.06,-72.66 -62.02,-102.71 5.51,-10.44 27.23,-25.77 38.27,-34.55 15.8,-12.53 28.05,-22.57 41.04,-35.2 37.41,29.49 62.29,146.69 69.98,156.43 36.04,-17.15 60.46,-39.15 122.24,-66.47 46.56,-20.55 90.99,-35.6 143.03,-49.59 -10.2,-60.61 -87.4,-169.35 -130.78,-214.17 -336.67,-347.67 -936.47,-12.72 -962.53,483.45 -5.51,104.8 8.45,218.4 36.72,308.74 34.6,110.52 3.66,42.47 150.01,110.36 17.1,7.96 42.54,23.67 59.45,28.99zm527.27 -318.1c-13.43,-5.39 -47.71,-33.64 -65.71,-45.88 -11.12,-7.58 -14.19,-7.55 -20.36,-18.53 13.06,-18.5 12.99,-12.83 30.07,-41.38 6.54,-10.92 20.06,-38.08 20.71,-50.88 -122.89,-17.73 -187.7,38.78 -203.18,151.07 -8.74,63.28 4.38,81.25 -10.42,102.95l-191.53 292.79c18.5,31.66 23.21,30.05 47.22,47.76 48.41,35.8 123.11,79.99 177.43,109.82 34.35,18.84 227.06,112.38 276.38,107.01 -29.95,-173.13 -16.46,-343.17 73.79,-490.04 27.62,-44.94 50.81,-72.78 89.71,-110.57 66.06,-64.14 154.75,-109.87 251.77,-144.88 47.71,-17.2 104.65,-31.63 158.67,-41.64 29.13,-5.37 55.34,-9.43 85.24,-13.18 29.16,-3.68 63.44,-4.14 92.98,-8.63 17.44,-27.98 19.75,-105.33 12.56,-142.89 -4.57,-23.86 -8.15,-18 -65.27,-18.96 -27.84,-0.48 -55.79,-0.99 -83.63,-1.13 -222.68,-1.03 -416.93,12.66 -593.84,149.96 -23.26,18.07 -27.06,19.71 -34.26,49.29 -7.56,30.91 -29.38,96.5 -48.29,117.93zm-1245.41 369.94c7.1,-1.37 67.92,-39.46 82.88,-47.45 96.4,-51.46 213.08,-85.02 325.56,-86.11 1.33,-16.86 -9.1,-39.84 -13.4,-57.59 -16.39,-67.51 -24.47,-114.81 -31.25,-187.22 -16.62,-177.1 31.44,-272.97 29.26,-332.41 -1.51,-40.01 -5.58,-182.53 -13.62,-204.09 -14.31,-38.25 -45.16,-52.98 -90.34,-55.5 -50.45,-2.81 -90.53,-3.06 -141.9,2.38 -113.91,12.05 -114.66,65.56 -104.05,175.92 9.67,101 27.95,470.61 15.95,559.02 -7.26,53.24 -37.63,190.81 -59.09,233.05zm1996.32 392.83c2.02,-56.8 -25.62,-163.11 -45.64,-216.86 -28.2,-75.81 -75.3,-149.86 -131.21,-199.03l-18.94 -17.56c-0.62,-0.5 -1.49,-1.13 -2.1,-1.59 -83.8,-61.45 -217.97,-115.43 -323.92,-103.96 -65.49,83.44 -83.12,253.17 -66.95,367.56 14.92,105.5 15.3,90.39 56.32,96.24 92.82,13.3 180.73,22.11 277.23,28.48 47.15,3.15 92.33,6.26 138.38,14.08 23.92,4.07 39.91,7.94 62.72,14.41 15.49,4.38 41.12,16.1 54.11,18.23zm-1834.58 1906.05c137.8,0.15 145.48,-21.72 143.49,-165.88l-86.46 -75.16c-30.29,-28.03 -55.87,-52.31 -83.03,-80.64 -26.71,-27.88 -52.26,-57.53 -77.95,-85.84l-56.47 -67.25c-6.38,-8.06 -9.58,-18.11 -19.78,-21.22 -0.12,54.56 -5.07,115.87 -9.43,167.93 -4.88,58.34 -5.13,116.8 -9.33,175.43 -5.37,74.7 -16.26,84.33 49.77,117.48 44.77,22.49 92.75,35.12 149.19,35.15zm-214.02 -2791.41l-6.09 -157.94c-10.44,-0.1 -200.79,90.58 -234.88,106.75 -39.36,18.67 -44.84,19.9 -37.41,76.26 3.08,23.22 17.88,73.64 35.92,78.7 13.31,3.71 228.07,-94 242.46,-103.77zm-175.07 712.71c8.98,-10.05 34.26,-40.4 40.8,-53.34l25.65 -67.92c-12.83,-5.6 -64.21,-11.19 -81.9,-15.26 -183.42,-42.2 -197.3,-126 -211.72,9.86 -4.16,39.26 4.18,30.97 81.89,67.7 20.52,9.7 126.57,57.69 145.29,58.97zm1065.28 -1407.83c6.42,4.42 34.55,-9.63 53.12,-16.27 21.12,-7.51 36.61,-11.96 57.96,-17.66 12.75,-54.88 4.02,-93.63 -12.44,-141.05 -4.45,-12.85 -13.4,-47.56 -25,-54.49 -23.48,-14.07 -109.71,10.7 -121.93,36.38 -8.23,17.32 27.81,45.9 39.99,118.3 3.05,18.43 4.23,63.49 8.3,74.78zm-1131.3 1502.43c-30.36,-12.24 -23.39,-7.29 -71.72,21.94l-138.1 83.75c-28.29,17.76 -33.03,43.66 -14.51,75.35 19.65,33.63 47.15,19.06 76.22,4.45 113.94,-57.28 74.17,-22.61 113.68,-107.88 8.44,-18.23 34.81,-61.27 34.43,-77.61zm1381.58 -1552.63c59.4,-1.78 100.42,10.51 151.79,18.23 -4.11,-55.86 -12.66,-91.4 -7.75,-152.44 1.49,-18.35 7.03,-58.12 -0.38,-74.24 -8.86,-19.25 -31.47,-31.18 -45.59,-14.65 -9.22,10.83 -35.06,95.35 -43.74,115.72 -8.63,20.09 -52.93,89.96 -54.33,107.39zm331.77 96.36c1.47,-47.88 20.43,-145.99 14.65,-186.55 -20.21,-15.45 -61.76,-24.59 -93.66,-20.83 -3.66,39.33 4.52,89.9 11.23,127.42 4.64,25.88 1.1,43.19 18.84,53.96 12.01,7.27 38.09,23.14 48.94,25.99zm687.26 1320.26l-39.02 -0.5c5.53,42.85 13.3,49.51 39.05,52.28 23.89,2.6 67.32,-2.09 82.84,-13.96 3.17,-28.73 -1.49,-27.89 -6.09,-51.32 -29.91,5.13 -36.84,13.42 -76.79,13.5zm-217.9 -289.45l36.11 36.54c16.21,-4.21 53.02,-30.07 61.61,-40.22 -2.02,-17.25 -14.56,-39.62 -28.89,-45.97 -10.18,7.63 -19.78,18.67 -30.51,26.63 -10.46,7.77 -28.49,14.89 -38.32,23.02z"/>
  </g>
 </g>
</svg>
